<?xml version="1.0" standalone="no"?>
<!DOCTYPE svg PUBLIC "-//W3C//DTD SVG 20010904//EN"
 "http://www.w3.org/TR/2001/REC-SVG-20010904/DTD/svg10.dtd">
<svg version="1.0" xmlns="http://www.w3.org/2000/svg"
 width="2000.000000pt" height="2000.000000pt" viewBox="0 0 2000.000000 2000.000000"
 preserveAspectRatio="xMidYMid meet">
<metadata>
Created by potrace 1.14, written by Peter Selinger 2001-2017
</metadata>
<g transform="translate(0.000000,2000.000000) scale(0.100000,-0.100000)"
fill="#000000" stroke="none">
<path d="M9957 19993 c-3 -2 -19 -5 -36 -5 -17 -1 -28 -5 -24 -11 3 -5 -4 -4
-16 2 -11 7 -21 8 -21 3 0 -5 -25 -8 -55 -8 -30 1 -55 -1 -55 -4 0 -3 -25 -5
-55 -5 -30 0 -55 -3 -55 -7 0 -11 -23 -5 -32 7 -5 7 -11 7 -15 0 -5 -6 -37
-11 -73 -11 -56 -1 -183 -9 -325 -19 -22 -2 -50 -3 -63 -4 -15 -1 -21 -5 -16
-13 5 -7 3 -8 -7 -2 -20 12 -59 13 -59 1 0 -5 -6 -5 -13 2 -8 6 -16 8 -19 5
-3 -3 -32 -7 -64 -10 -61 -5 -98 -9 -174 -19 -25 -3 -66 -7 -91 -9 -25 -2 -50
-6 -55 -9 -5 -3 -31 -8 -59 -11 -27 -3 -63 -8 -80 -12 -16 -3 -39 -6 -50 -6
-11 -1 -26 -6 -32 -11 -9 -6 -13 -5 -13 3 0 9 -4 9 -12 3 -7 -6 -27 -10 -44
-10 -16 0 -34 -2 -40 -5 -5 -3 -25 -9 -45 -12 -20 -3 -42 -8 -50 -10 -8 -3
-30 -7 -49 -10 -19 -3 -46 -8 -60 -12 -32 -7 -88 -15 -122 -17 -16 -1 -28 -5
-28 -8 0 -7 -129 -35 -142 -31 -5 1 -8 -1 -8 -5 0 -5 -15 -8 -32 -8 -18 1 -35
-3 -38 -7 -3 -4 -24 -10 -45 -14 -22 -3 -42 -9 -45 -13 -3 -3 -14 -7 -25 -7
-11 -1 -33 -4 -50 -8 -16 -4 -34 -8 -40 -9 -5 -2 -14 -5 -20 -8 -5 -4 -18 -5
-27 -4 -10 2 -18 0 -18 -4 0 -4 -28 -13 -62 -20 -35 -7 -67 -16 -73 -19 -10
-6 -21 -9 -60 -16 -11 -2 -56 -15 -99 -29 -44 -14 -83 -24 -88 -21 -4 3 -8 0
-8 -6 0 -7 -7 -10 -15 -7 -8 4 -17 2 -20 -4 -4 -5 -11 -7 -16 -4 -5 4 -9 1 -9
-4 0 -6 -3 -10 -7 -9 -14 3 -103 -24 -108 -33 -3 -4 -12 -6 -20 -2 -8 3 -15 0
-15 -6 0 -6 -7 -8 -15 -5 -8 4 -15 1 -15 -5 0 -6 -3 -10 -7 -9 -12 2 -126 -33
-139 -43 -6 -5 -14 -6 -17 -2 -4 3 -7 0 -7 -7 0 -7 -3 -11 -6 -8 -3 4 -20 0
-37 -7 -18 -7 -36 -14 -42 -15 -5 -1 -20 -6 -33 -11 -13 -5 -28 -9 -33 -9 -5
0 -9 -5 -9 -11 0 -5 -5 -7 -10 -4 -6 4 -17 1 -25 -5 -8 -7 -15 -9 -15 -6 0 4
-10 1 -22 -6 -13 -7 -25 -13 -28 -13 -3 -1 -18 -7 -33 -13 -16 -7 -32 -10 -37
-7 -5 3 -10 0 -12 -5 -2 -6 -10 -12 -18 -14 -8 -1 -31 -9 -50 -18 -51 -23 -74
-31 -82 -30 -5 1 -8 -3 -8 -9 0 -5 -4 -7 -10 -4 -5 3 -10 1 -10 -5 0 -6 -4 -9
-9 -6 -5 3 -29 -5 -55 -19 -25 -13 -46 -22 -46 -20 0 3 -15 -4 -32 -14 -18
-10 -46 -21 -61 -25 -15 -3 -26 -10 -23 -14 2 -4 -4 -8 -14 -9 -10 -1 -83 -33
-162 -71 -78 -38 -146 -69 -149 -68 -3 0 -14 -5 -23 -13 -17 -15 -115 -64
-129 -65 -4 -1 -12 -8 -17 -16 -5 -8 -10 -11 -10 -7 0 5 -15 -2 -32 -15 -18
-13 -33 -21 -33 -19 0 2 -21 -7 -47 -19 -27 -12 -48 -27 -48 -32 0 -6 -7 -8
-15 -4 -8 3 -15 1 -15 -4 0 -4 -16 -14 -35 -20 -19 -6 -35 -15 -35 -18 0 -4
-26 -20 -58 -36 -31 -17 -75 -42 -97 -56 -22 -15 -67 -41 -100 -60 -33 -18
-62 -36 -65 -39 -3 -4 -16 -12 -30 -19 -51 -26 -100 -59 -95 -64 3 -2 -1 -5
-8 -5 -6 0 -46 -22 -87 -49 -42 -27 -83 -53 -91 -59 -9 -5 -36 -23 -60 -40
-24 -16 -47 -28 -52 -27 -4 1 -7 -2 -7 -7 0 -5 -17 -20 -37 -32 -38 -24 -52
-34 -78 -56 -7 -7 -18 -13 -23 -13 -5 0 -23 -13 -40 -30 -18 -16 -36 -30 -40
-30 -5 0 -17 -8 -28 -18 -27 -25 -88 -67 -96 -67 -5 0 -7 -4 -5 -8 1 -5 -11
-15 -26 -24 -16 -8 -37 -22 -49 -31 -42 -35 -57 -48 -84 -67 -16 -11 -36 -28
-46 -37 -10 -10 -20 -18 -23 -18 -3 0 -11 -4 -18 -10 -6 -6 -28 -24 -47 -40
-19 -16 -41 -30 -48 -30 -7 0 -10 -4 -7 -10 3 -5 3 -10 -2 -10 -4 0 -23 -14
-41 -30 -19 -16 -42 -32 -53 -35 -11 -4 -17 -11 -14 -16 4 -5 2 -9 -4 -9 -6 0
-23 -12 -39 -27 -15 -16 -43 -39 -61 -53 -18 -14 -56 -46 -84 -72 -28 -26 -54
-45 -59 -42 -4 3 -8 0 -8 -6 0 -6 -19 -28 -41 -48 -23 -20 -68 -63 -100 -94
-33 -32 -63 -58 -69 -58 -5 0 -10 -4 -10 -9 0 -13 -100 -111 -113 -111 -6 0
-8 -3 -4 -6 3 -4 -16 -24 -44 -45 -27 -22 -49 -44 -49 -50 0 -6 -5 -7 -10 -4
-6 3 -10 0 -10 -7 0 -7 -55 -70 -123 -140 -148 -154 -227 -238 -227 -243 0 -3
-18 -24 -40 -47 -21 -24 -40 -46 -40 -50 0 -4 -13 -20 -28 -35 -15 -16 -45
-50 -67 -76 -22 -26 -49 -58 -60 -71 -11 -13 -30 -37 -42 -52 -24 -32 -55 -71
-76 -94 -28 -32 -78 -100 -74 -100 3 0 -8 -15 -23 -32 -16 -18 -30 -36 -30
-40 -1 -4 -17 -24 -35 -44 -19 -20 -32 -41 -29 -46 3 -4 1 -8 -5 -8 -9 0 -117
-142 -113 -147 1 -2 -6 -12 -15 -22 -33 -37 -44 -51 -37 -51 4 0 -3 -8 -14
-19 -12 -10 -22 -23 -22 -30 0 -6 -8 -20 -17 -30 -33 -36 -43 -50 -43 -59 0
-5 -12 -22 -28 -37 -15 -16 -20 -25 -12 -20 11 6 10 3 -3 -12 -9 -11 -17 -24
-17 -30 0 -6 -7 -13 -15 -17 -8 -3 -15 -12 -15 -21 0 -8 -3 -15 -8 -15 -4 0
-18 -20 -32 -45 -14 -25 -28 -45 -33 -45 -4 0 -6 -4 -3 -8 3 -5 -4 -19 -15
-30 -11 -12 -16 -22 -12 -22 4 0 3 -4 -3 -8 -14 -10 -119 -185 -116 -194 1 -5
-1 -8 -6 -8 -4 0 -16 -17 -27 -37 -11 -21 -26 -44 -32 -51 -7 -7 -13 -20 -13
-28 0 -8 -4 -14 -8 -14 -4 0 -13 -12 -19 -27 -14 -35 -45 -86 -56 -94 -5 -3
-8 -9 -8 -13 2 -11 -61 -131 -70 -134 -5 -2 -9 -9 -9 -15 0 -15 -122 -260
-134 -268 -5 -4 -6 -11 -2 -17 3 -6 2 -12 -2 -14 -13 -5 -117 -225 -114 -240
1 -5 -3 -8 -9 -8 -6 0 -9 -6 -7 -12 3 -7 -1 -19 -9 -26 -7 -7 -13 -22 -13 -33
0 -11 -6 -22 -14 -25 -8 -3 -12 -12 -9 -20 3 -8 0 -14 -6 -14 -6 0 -10 -3 -9
-7 3 -13 -13 -53 -22 -53 -4 0 -7 -8 -5 -17 1 -10 -1 -22 -5 -28 -6 -9 -23
-48 -62 -142 -6 -15 -11 -31 -10 -35 1 -5 -3 -8 -10 -8 -6 0 -9 -3 -5 -6 3 -3
-3 -26 -13 -50 -11 -24 -17 -44 -13 -44 3 0 -1 -8 -10 -18 -10 -10 -14 -22
-11 -25 4 -4 2 -13 -4 -20 -7 -8 -9 -17 -5 -20 3 -4 1 -7 -6 -7 -8 0 -11 -7
-7 -15 3 -8 2 -15 -2 -15 -4 0 -13 -20 -20 -44 -8 -23 -20 -55 -27 -70 -10
-18 -10 -24 -2 -19 9 5 9 3 0 -9 -16 -19 -135 -375 -136 -405 -1 -13 -5 -23
-9 -23 -4 0 -8 -10 -8 -23 0 -13 -3 -27 -7 -31 -4 -3 -8 -12 -9 -19 -8 -38
-13 -58 -18 -65 -3 -5 -7 -19 -10 -33 -3 -13 -8 -35 -11 -49 -4 -14 -9 -37
-12 -52 -3 -16 -10 -28 -16 -28 -6 0 -8 -3 -5 -6 3 -3 0 -28 -8 -57 -7 -28
-11 -53 -9 -56 3 -2 1 -9 -4 -15 -5 -6 -11 -25 -14 -43 -3 -17 -7 -35 -10 -40
-5 -8 -18 -77 -20 -100 0 -7 -3 -13 -7 -13 -3 0 -7 -10 -7 -22 -1 -13 -7 -45
-13 -73 -21 -92 -22 -100 -23 -112 0 -7 -3 -13 -6 -13 -3 0 -7 -10 -7 -22 -1
-24 -8 -65 -18 -108 -3 -14 -11 -51 -16 -82 -6 -32 -14 -70 -17 -85 -3 -16 -6
-40 -7 -55 0 -16 -4 -28 -7 -28 -3 0 -5 -13 -4 -30 1 -16 -1 -30 -4 -30 -3 0
-7 -13 -8 -28 -1 -15 -5 -41 -8 -57 -8 -38 -18 -122 -19 -157 -1 -16 -3 -28
-6 -28 -3 0 -6 -19 -8 -42 -1 -22 -6 -46 -9 -51 -3 -6 -8 -33 -9 -61 -4 -68
-12 -161 -14 -161 -1 0 -3 -8 -5 -17 -2 -10 1 -18 6 -18 5 0 9 -5 9 -11 0 -5
-3 -8 -8 -5 -4 2 -8 -10 -9 -27 -1 -18 -4 -63 -7 -102 -4 -38 -6 -89 -7 -113
0 -29 -4 -40 -12 -35 -9 5 -9 3 -1 -8 5 -8 9 -25 8 -39 -2 -14 -4 -55 -5 -92
-2 -45 -6 -65 -13 -61 -8 5 -8 3 0 -8 8 -11 12 -72 4 -81 -7 -9 -5 -48 3 -48
6 0 6 -5 1 -12 -5 -7 -9 -41 -9 -75 0 -35 -3 -63 -6 -63 -4 0 -6 -20 -5 -44 1
-25 -1 -43 -5 -40 -4 2 -7 -9 -7 -24 0 -15 -1 -45 -1 -67 -2 -62 3 -125 9
-125 4 0 10 -73 14 -173 1 -15 4 -27 8 -27 5 0 8 -5 8 -11 0 -5 -5 -7 -11 -3
-8 5 -8 1 0 -13 7 -14 7 -23 -1 -31 -7 -7 -8 -12 -3 -12 6 0 11 -42 12 -93 0
-50 4 -130 7 -177 4 -47 9 -121 12 -165 3 -44 6 -91 7 -105 1 -14 7 -28 12
-32 7 -5 7 -10 0 -15 -11 -9 -16 -43 -6 -43 3 0 6 -15 6 -32 -1 -18 4 -36 10
-40 7 -5 6 -8 -1 -8 -9 0 -9 -12 -3 -41 5 -23 7 -50 4 -60 -4 -11 -2 -19 3
-19 6 0 9 -8 7 -17 -1 -10 0 -22 3 -28 4 -5 7 -23 8 -40 2 -16 5 -46 9 -65 3
-19 8 -51 10 -70 3 -19 8 -57 12 -85 3 -27 7 -60 7 -72 1 -13 5 -23 10 -23 5
0 6 -3 3 -6 -3 -4 -2 -15 4 -25 7 -14 6 -19 -3 -19 -9 0 -10 -3 -2 -8 6 -4 11
-14 12 -22 3 -38 10 -79 21 -118 7 -23 9 -47 6 -52 -3 -6 -2 -10 3 -10 5 0 8
-13 7 -30 -1 -17 0 -30 4 -30 4 0 7 -8 8 -17 1 -10 4 -30 7 -45 3 -16 8 -40
11 -55 3 -16 8 -35 10 -43 3 -8 7 -33 11 -55 3 -22 9 -44 14 -50 4 -5 6 -19 4
-30 -1 -10 2 -25 7 -31 5 -7 9 -16 8 -20 -1 -5 0 -16 4 -24 3 -8 10 -37 16
-65 7 -27 14 -61 17 -75 3 -14 8 -36 11 -50 2 -14 7 -32 10 -40 3 -8 7 -19 8
-25 2 -5 10 -37 19 -70 9 -33 19 -71 22 -84 3 -13 10 -33 15 -43 6 -11 8 -26
5 -34 -3 -8 -1 -14 4 -14 6 0 9 -3 8 -7 0 -5 1 -15 5 -23 12 -31 50 -166 50
-177 0 -7 4 -13 9 -13 4 0 8 -10 8 -23 0 -13 3 -27 7 -31 4 -3 8 -16 10 -28 2
-12 8 -27 14 -35 6 -7 9 -13 6 -13 -4 0 7 -37 24 -83 17 -45 32 -86 33 -92 4
-13 11 -33 42 -117 14 -36 26 -75 27 -86 0 -12 4 -19 8 -17 3 3 12 -15 19 -38
7 -23 18 -55 26 -72 7 -16 22 -55 34 -85 12 -30 27 -66 33 -80 6 -14 11 -27
12 -30 1 -3 7 -18 13 -33 7 -16 12 -33 12 -38 0 -5 5 -9 11 -9 5 0 7 -4 4 -10
-3 -5 -1 -10 5 -10 6 0 9 -4 5 -9 -3 -5 3 -24 14 -43 10 -18 27 -54 36 -80 10
-27 22 -48 27 -48 6 0 8 -6 5 -13 -3 -7 4 -24 14 -38 10 -13 19 -29 19 -35 0
-6 18 -45 39 -86 22 -42 37 -79 34 -82 -4 -3 -1 -6 6 -6 7 0 9 -4 6 -10 -3 -5
-3 -10 2 -10 9 0 33 -48 33 -67 0 -8 7 -16 15 -19 8 -4 12 -11 9 -16 -4 -6 -3
-13 2 -17 11 -7 38 -63 36 -74 -1 -4 2 -7 6 -7 5 0 14 -16 22 -35 8 -19 17
-35 20 -35 4 0 13 -18 20 -40 7 -22 17 -40 21 -40 4 0 12 -15 18 -33 7 -19 21
-43 32 -55 11 -12 17 -22 13 -22 -3 0 1 -11 10 -25 18 -27 25 -39 105 -177 30
-51 58 -94 63 -96 4 -2 8 -10 8 -18 0 -8 5 -14 11 -14 5 0 8 -4 4 -9 -3 -5 6
-22 20 -37 13 -14 22 -30 19 -35 -3 -5 -1 -9 3 -9 5 0 22 -22 38 -50 16 -27
33 -50 38 -50 4 0 6 -4 3 -8 -3 -5 6 -20 20 -35 14 -15 21 -27 17 -27 -4 0 -1
-6 7 -13 8 -7 26 -33 40 -59 13 -26 28 -44 34 -41 5 3 6 1 3 -4 -4 -6 3 -21
14 -34 11 -13 30 -39 42 -59 11 -19 26 -40 32 -47 30 -36 35 -43 35 -53 0 -5
3 -10 8 -10 4 0 18 -18 32 -40 14 -22 28 -40 32 -40 5 0 8 -7 8 -15 0 -8 3
-15 8 -15 4 -1 23 -24 42 -52 19 -27 45 -61 58 -74 13 -13 20 -24 17 -24 -6 0
5 -14 35 -48 8 -10 26 -33 39 -52 14 -19 38 -51 55 -71 17 -19 47 -55 66 -79
19 -23 41 -49 48 -56 7 -8 11 -14 8 -14 -3 0 5 -10 17 -23 12 -13 36 -40 52
-60 17 -21 39 -48 50 -61 11 -13 40 -48 65 -77 25 -29 66 -75 93 -102 26 -26
47 -50 47 -53 0 -3 45 -51 100 -107 55 -56 131 -135 169 -174 38 -40 71 -73
74 -73 2 0 60 -55 129 -123 141 -138 250 -237 369 -337 38 -32 79 -67 119
-102 8 -7 31 -24 50 -38 19 -14 42 -32 51 -40 36 -34 70 -60 79 -60 6 0 10 -4
10 -8 0 -5 21 -24 48 -42 26 -19 49 -36 52 -40 3 -3 23 -18 45 -35 22 -16 45
-34 52 -40 35 -29 43 -35 47 -35 6 0 37 -24 61 -48 8 -6 18 -12 24 -12 6 0 11
-4 11 -10 0 -5 7 -10 15 -10 8 0 15 -4 15 -8 0 -4 13 -15 28 -24 15 -9 43 -30
62 -47 19 -16 38 -27 42 -25 4 3 8 1 8 -3 0 -5 25 -25 55 -44 30 -18 55 -37
55 -41 0 -5 5 -8 11 -8 6 0 28 -14 49 -30 21 -17 42 -30 47 -30 5 0 19 -9 31
-20 12 -12 22 -17 22 -13 0 4 4 3 8 -4 4 -6 13 -13 21 -15 8 -2 25 -13 39 -25
14 -13 31 -23 38 -23 8 0 14 -4 14 -9 0 -5 14 -14 30 -21 17 -7 30 -16 30 -19
0 -4 16 -13 35 -21 19 -8 35 -17 35 -22 0 -4 7 -8 15 -8 8 0 15 -4 15 -8 0 -5
16 -14 35 -22 19 -8 35 -16 35 -19 0 -3 21 -17 47 -31 27 -13 50 -27 53 -31 3
-4 32 -21 65 -38 33 -17 94 -50 135 -73 41 -22 107 -57 145 -76 39 -19 73 -40
76 -45 3 -5 9 -9 12 -9 19 0 47 -12 47 -19 0 -5 6 -9 13 -9 18 0 67 -24 67
-32 0 -5 7 -8 16 -8 9 0 29 -9 45 -21 16 -11 38 -21 49 -22 11 -1 20 -4 20 -8
0 -8 60 -33 73 -30 4 0 7 -4 7 -9 0 -6 4 -10 9 -10 5 0 26 -8 47 -17 22 -9 42
-16 47 -15 4 1 7 -2 7 -8 0 -5 18 -15 40 -21 22 -7 40 -15 40 -19 0 -4 7 -7
15 -8 8 -1 22 -3 30 -4 8 -1 15 -5 15 -9 0 -6 56 -30 63 -27 1 1 13 -5 27 -12
14 -8 28 -15 33 -16 4 -1 9 -3 12 -4 3 -1 8 -3 13 -4 9 -2 75 -32 125 -57 22
-10 35 -13 30 -6 -5 9 -3 9 9 0 8 -7 18 -10 21 -6 4 3 7 1 7 -5 0 -7 3 -11 8
-10 4 1 21 -5 37 -12 17 -7 36 -12 43 -11 6 1 12 -4 12 -10 0 -7 3 -10 6 -7 3
4 20 0 39 -7 18 -8 35 -11 39 -8 3 4 6 1 6 -5 0 -7 6 -12 14 -12 7 0 30 -7 50
-15 20 -8 37 -15 38 -14 4 1 91 -31 111 -42 10 -5 22 -7 27 -4 6 4 10 1 10 -5
0 -6 4 -9 9 -5 5 3 12 1 15 -4 4 -5 14 -8 24 -6 9 1 23 -2 31 -8 7 -6 25 -13
39 -15 15 -2 31 -7 37 -11 8 -7 23 -12 75 -26 3 0 32 -9 65 -20 67 -21 82 -24
108 -27 9 -1 17 -6 17 -10 0 -3 8 -7 18 -7 22 0 44 -5 58 -13 6 -4 25 -10 42
-13 17 -3 44 -10 59 -16 15 -6 39 -13 53 -15 39 -5 54 -9 68 -17 6 -5 12 -6
12 -4 0 3 39 -6 87 -18 48 -13 91 -21 95 -19 4 3 8 1 8 -4 0 -5 10 -8 23 -8
12 1 27 -1 33 -6 6 -4 24 -10 40 -12 16 -2 52 -9 79 -16 28 -7 59 -13 70 -14
11 -1 25 -4 30 -8 6 -3 18 -4 28 -3 9 2 17 0 17 -5 0 -4 10 -8 23 -8 12 0 38
-3 57 -6 19 -4 52 -10 73 -13 20 -3 37 -9 37 -13 0 -5 9 -6 20 -3 11 3 27 0
35 -7 11 -9 15 -9 15 -1 0 8 6 9 18 3 9 -5 25 -8 35 -7 9 2 17 0 17 -5 0 -4
10 -6 23 -6 12 1 27 -2 34 -6 6 -5 14 -5 18 1 4 7 16 6 35 -4 19 -10 31 -11
35 -4 4 6 11 7 18 1 17 -14 128 -31 229 -35 21 -1 38 -5 38 -9 0 -4 9 -5 20
-3 11 2 33 0 50 -5 21 -6 30 -5 30 3 0 8 3 9 8 1 4 -5 22 -10 40 -9 17 0 32
-2 32 -5 0 -8 57 -6 66 3 4 4 12 3 18 -2 10 -8 59 -14 236 -27 30 -2 92 -4
138 -5 45 -1 82 -5 82 -11 0 -5 6 -6 12 -2 18 11 48 12 54 2 3 -4 14 -4 24 2
10 6 21 7 24 2 2 -4 31 -9 63 -10 73 -3 115 -7 178 -17 67 -11 118 -10 190 0
33 5 72 9 88 8 15 0 27 3 27 6 0 3 21 5 47 4 27 0 54 3 61 9 6 6 12 6 12 1 0
-5 9 -9 20 -9 11 0 20 3 20 6 0 10 55 6 63 -5 4 -7 10 -6 15 0 4 6 39 12 79
13 40 1 83 3 97 6 14 3 28 0 32 -5 4 -7 10 -6 18 0 6 6 21 10 31 9 17 0 111 7
192 15 12 2 25 6 29 10 4 4 13 2 21 -4 10 -9 13 -8 13 1 0 9 3 10 13 1 8 -6
16 -8 20 -5 3 3 27 8 54 10 129 12 225 24 241 29 6 2 12 -1 12 -8 0 -9 3 -8 9
1 4 8 11 13 15 12 3 -1 24 1 46 5 21 4 54 8 72 10 18 2 47 6 63 9 17 3 39 7
50 9 11 1 26 7 34 11 10 7 12 6 6 -4 -5 -9 -4 -11 4 -6 13 8 52 16 93 19 15 1
28 5 28 9 0 4 6 5 14 2 8 -3 17 -1 20 4 3 6 14 8 24 6 9 -3 37 1 63 9 25 8 55
12 68 10 12 -2 20 0 18 4 -3 5 7 9 22 10 15 1 40 5 56 9 17 3 56 11 88 17 31
6 57 15 57 19 0 5 5 6 10 3 6 -4 25 -2 43 4 17 5 46 12 62 15 36 6 154 35 175
43 8 4 18 6 22 5 3 -1 42 9 87 22 44 13 83 21 86 18 3 -3 5 0 5 7 0 7 4 10 8
7 5 -3 66 12 135 33 70 21 129 36 132 33 3 -3 5 0 5 7 0 7 4 10 9 7 7 -5 55 9
131 39 3 1 20 6 38 10 17 4 32 12 32 17 0 5 4 7 9 4 10 -7 164 45 169 56 2 4
10 4 18 1 8 -3 14 1 14 8 0 7 3 9 7 6 3 -4 12 -2 19 3 6 6 16 10 20 9 5 -1 18
1 29 5 11 4 34 13 50 19 17 6 33 16 37 21 5 7 8 5 8 -4 0 -12 2 -12 9 -2 4 7
14 15 22 16 8 2 27 8 42 14 15 7 39 15 52 18 14 3 25 10 25 16 0 5 4 6 10 3 5
-3 20 0 32 7 13 7 25 13 28 14 3 1 15 5 28 9 12 4 22 12 22 17 0 5 5 6 10 3 6
-4 17 -1 25 5 8 6 19 9 25 5 5 -3 10 -1 10 4 0 6 4 11 9 11 5 0 35 12 67 27
33 15 62 27 67 29 4 1 9 3 12 4 3 1 8 3 13 4 4 1 30 13 59 28 28 14 54 24 57
21 3 -4 6 -1 6 5 0 7 4 12 9 12 5 0 29 9 55 20 25 12 49 20 52 20 4 -1 10 2
13 7 9 12 71 43 86 43 7 0 15 3 17 8 2 4 60 36 131 70 70 35 127 68 127 75 0
7 4 6 10 -3 5 -8 10 -10 10 -4 0 6 18 19 40 29 22 10 40 22 40 27 0 4 3 7 8 6
13 -4 52 13 52 23 0 5 9 9 20 9 10 0 23 7 28 16 5 9 11 15 13 13 8 -4 49 13
49 21 0 4 11 11 25 14 14 4 25 11 25 16 0 6 9 10 20 10 11 0 20 5 20 12 0 6 3
9 6 5 4 -3 12 -1 20 6 31 28 44 37 49 37 3 -1 32 15 64 34 32 20 63 36 69 36
6 0 15 6 19 13 9 13 33 30 73 49 14 7 30 19 36 27 6 8 15 11 21 8 5 -3 16 3
23 14 8 10 20 19 27 19 7 0 13 5 13 10 0 6 7 10 15 10 8 0 15 5 15 10 0 6 5
10 11 10 12 0 103 60 107 72 2 4 13 8 25 8 11 0 17 3 14 6 -3 4 25 27 63 51
39 25 70 49 70 55 0 5 4 7 8 4 5 -3 20 6 35 20 14 13 29 24 31 24 3 0 17 10
32 23 14 12 28 21 30 19 3 -1 12 5 21 13 9 9 41 35 72 57 31 23 63 47 71 55 8
7 47 37 85 65 86 64 89 66 126 100 16 15 29 25 29 21 0 -3 14 9 32 25 17 17
35 29 40 26 4 -3 8 3 8 12 0 10 3 15 6 11 3 -3 19 8 35 24 15 16 31 29 35 29
3 0 25 18 47 40 23 21 45 40 49 40 8 2 113 97 200 182 32 31 58 54 58 51 0 -3
54 49 121 116 66 66 124 121 129 121 5 0 14 9 20 20 6 11 15 18 21 15 5 -4 9
0 9 9 0 8 4 16 9 18 5 2 24 22 44 45 19 23 37 39 41 36 3 -4 6 -2 6 4 0 5 43
53 95 106 52 52 95 101 95 107 0 6 5 8 10 5 6 -3 10 -2 10 3 0 5 10 20 23 34
12 13 42 48 67 77 25 29 51 59 58 66 6 8 12 19 12 25 0 6 5 8 10 5 6 -3 10 -2
10 3 0 4 12 23 28 40 15 18 36 44 47 58 11 14 27 34 37 45 9 11 31 39 50 62
18 22 40 49 50 58 9 10 14 20 11 23 -4 3 1 6 10 6 9 0 16 4 14 8 -1 4 13 26
31 47 18 22 33 45 34 50 1 6 15 22 31 38 15 15 24 27 20 27 -4 0 -1 6 7 13 9
7 31 35 50 62 19 28 37 52 40 55 14 14 60 80 60 86 0 4 8 14 18 23 26 23 102
135 102 149 0 7 3 12 8 12 4 0 20 21 37 48 16 26 39 55 50 65 11 10 13 15 5
11 -11 -6 -10 -2 3 13 9 11 17 24 17 30 0 6 7 13 15 17 8 3 15 12 15 20 0 8 3
16 8 18 9 4 64 88 57 88 -3 0 5 12 19 27 14 15 23 30 20 35 -3 4 0 8 5 8 6 0
11 7 11 15 0 8 5 15 10 15 6 0 10 7 10 15 0 8 4 15 8 15 5 0 14 16 22 35 7 19
20 37 27 40 8 2 12 9 9 14 -3 4 3 18 13 30 10 12 24 35 31 51 7 17 16 30 21
30 5 0 9 5 9 11 0 7 13 33 29 59 16 27 27 51 24 54 -4 3 -1 6 5 6 7 0 12 7 12
15 0 8 3 15 8 15 4 0 16 20 27 44 11 24 24 42 29 38 5 -3 7 2 3 11 -3 10 -3
17 2 17 7 0 18 24 20 46 0 2 7 12 16 20 8 9 13 20 10 25 -4 5 -2 9 2 9 10 0
58 90 55 103 -1 4 3 7 9 7 6 0 9 7 5 15 -3 8 -1 15 4 15 6 0 10 6 10 14 0 7 7
19 15 26 9 7 14 15 11 17 -2 2 14 38 35 78 21 41 35 75 31 75 -4 0 -2 4 3 8 6
4 21 32 35 62 14 30 28 56 32 58 4 2 4 10 1 18 -3 8 0 14 6 14 6 0 11 9 11 20
0 11 5 20 10 20 6 0 10 7 10 15 0 8 13 42 29 77 53 114 71 160 65 169 -3 5 -1
9 4 9 8 0 30 47 31 65 0 3 7 18 15 34 9 16 12 31 9 35 -4 3 -1 6 6 6 7 0 9 4
6 10 -3 6 -2 10 3 10 6 0 13 16 16 35 4 19 10 35 14 35 4 0 9 12 10 27 1 15 7
30 13 34 6 3 10 8 8 10 -3 5 21 79 30 94 3 6 7 19 8 29 2 11 8 25 14 32 6 7 8
17 5 23 -3 5 -2 11 2 13 12 4 133 379 126 389 -3 5 -1 9 3 9 5 0 16 30 27 68
10 37 20 73 22 80 2 7 4 16 5 20 0 4 4 12 9 17 4 6 6 18 5 28 -2 9 2 17 8 17
5 0 8 3 4 6 -3 3 -1 18 5 33 5 14 11 35 13 46 2 11 13 53 23 93 11 39 18 72
15 72 -3 0 -1 6 4 13 5 6 9 23 9 37 -1 14 2 28 6 31 5 3 9 17 10 32 1 15 6 27
10 27 4 0 7 8 6 18 0 9 3 31 7 47 4 17 8 37 10 45 2 8 4 15 5 15 1 0 3 9 4 20
2 11 9 47 16 80 7 33 14 67 15 75 2 8 4 15 5 15 2 0 10 52 12 83 1 12 6 22 10
22 4 0 7 3 6 8 -3 10 15 126 21 135 3 4 12 80 14 110 0 15 4 27 7 27 4 0 7 12
7 28 1 27 10 97 13 97 3 0 12 78 13 113 1 17 5 32 8 32 4 0 6 8 6 18 -1 9 3
46 7 82 5 36 8 71 7 78 -1 6 3 12 10 12 8 0 8 4 -1 15 -10 12 -10 15 0 15 10
0 10 3 0 15 -7 9 -8 15 -2 15 5 0 9 14 8 30 -1 17 1 30 5 30 8 0 6 20 -4 36
-3 6 -3 14 0 18 4 3 8 19 9 34 1 15 5 65 9 112 4 47 8 111 8 143 1 31 3 57 6
57 4 0 5 38 5 85 -1 57 2 83 9 78 6 -4 7 -1 2 7 -12 19 -12 84 0 92 6 5 5 8
-4 8 -11 0 -11 3 -1 15 9 11 9 15 1 15 -7 0 -9 5 -5 12 4 7 9 24 10 38 1 14 5
51 8 83 3 32 8 62 11 67 3 5 1 11 -5 15 -6 4 -7 12 -3 18 11 18 15 38 13 77
-1 19 -2 52 -3 72 0 21 -4 38 -7 38 -4 0 -6 23 -6 50 1 28 -3 50 -9 50 -5 0
-3 5 5 10 8 5 10 10 5 10 -6 0 -10 15 -10 33 1 17 -2 37 -6 42 -13 17 -13 19
-1 42 8 14 9 24 2 28 -7 4 -6 13 1 27 6 11 7 18 2 15 -5 -3 -9 26 -10 66 0 67
-6 164 -19 332 -2 39 -6 93 -8 121 -2 28 -7 57 -11 64 -6 9 -4 11 4 5 10 -6
11 -3 3 11 -5 11 -10 33 -10 49 0 17 -1 32 -2 35 -1 3 -3 23 -5 45 -1 22 -4
40 -5 40 -4 0 -10 44 -14 107 -3 38 -8 72 -11 78 -3 6 -8 31 -10 58 -2 26 -7
58 -10 72 -4 14 -7 40 -7 58 -1 17 -5 32 -9 32 -4 0 -6 8 -5 17 2 9 -6 59 -16
112 -28 149 -31 164 -30 188 0 13 -3 21 -7 19 -4 -3 -7 3 -7 12 -1 9 -4 31 -7
47 -3 17 -9 44 -12 60 -3 17 -9 39 -12 50 -4 11 -8 29 -9 40 -2 19 -6 41 -21
105 -3 14 -6 31 -6 38 0 6 -5 12 -10 12 -6 0 -8 3 -5 6 3 3 0 29 -8 57 -15 60
-25 107 -26 125 -1 6 -5 12 -9 12 -5 0 -6 7 -3 15 4 8 2 21 -4 28 -6 6 -10 14
-11 17 -2 33 -15 92 -22 96 -4 2 -6 11 -2 19 3 8 1 15 -4 15 -5 0 -10 15 -11
33 -2 17 -7 34 -12 35 -6 2 -8 8 -4 13 3 5 2 15 -3 22 -4 6 -8 18 -10 26 -1 8
-16 59 -33 114 -18 54 -33 105 -34 112 -1 7 -7 19 -14 27 -6 8 -9 17 -7 20 3
3 0 18 -6 34 -7 16 -13 34 -14 40 -6 24 -46 140 -56 157 -5 10 -7 22 -4 27 4
6 1 10 -5 10 -7 0 -10 7 -6 15 3 8 1 15 -4 15 -6 0 -10 8 -10 18 0 10 -3 22
-7 26 -5 4 -8 11 -9 14 0 4 -4 15 -8 24 -4 9 -9 25 -11 35 -2 10 -4 20 -5 23
-1 3 -2 8 -1 13 0 4 -3 7 -9 7 -5 0 -10 9 -10 19 0 11 -5 23 -10 26 -6 4 -8
11 -5 16 4 5 2 9 -4 9 -6 0 -8 7 -5 15 4 8 1 15 -6 15 -7 0 -10 7 -6 15 3 8 2
15 -2 15 -4 0 -15 22 -25 48 -9 27 -24 66 -34 88 -9 21 -17 41 -18 44 -1 3 -7
18 -13 33 -7 16 -12 33 -12 38 0 5 -5 9 -11 9 -5 0 -7 5 -4 10 3 6 2 10 -3 10
-6 0 -9 6 -9 13 1 11 -32 86 -43 97 -3 3 -6 12 -8 20 -4 18 -28 71 -93 205
-27 55 -49 106 -49 113 0 6 -4 12 -8 12 -7 0 -31 52 -30 67 0 3 -4 9 -9 12 -5
3 -22 33 -37 66 -15 33 -35 68 -43 77 -8 9 -12 21 -9 26 3 6 -1 12 -9 16 -8 3
-15 14 -15 25 0 11 -7 27 -16 35 -8 9 -12 16 -7 16 4 0 0 7 -11 15 -10 7 -15
18 -12 23 3 5 -3 18 -12 28 -20 22 -57 95 -54 107 1 4 -5 7 -13 7 -8 0 -18 12
-21 28 -4 15 -10 29 -14 32 -6 5 -64 100 -89 148 -8 15 -19 30 -25 34 -6 4 -7
8 -3 8 4 0 3 6 -3 13 -26 31 -58 86 -52 91 3 3 0 6 -6 6 -6 0 -18 15 -27 34
-9 18 -25 43 -36 55 -11 11 -17 21 -14 21 3 0 -5 15 -18 33 -13 17 -27 40 -30
50 -4 9 -11 17 -17 17 -5 0 -10 6 -10 13 0 7 -10 23 -23 37 -13 14 -24 28 -25
33 -3 11 -104 160 -124 181 -10 11 -18 23 -18 28 0 8 -22 37 -52 70 -10 10
-18 22 -18 28 0 5 -8 14 -17 19 -10 6 -14 11 -10 11 5 0 2 6 -5 14 -7 8 -22
26 -33 42 -11 15 -33 43 -49 61 -15 18 -25 33 -21 33 5 0 -4 11 -18 24 -14 13
-23 27 -20 30 4 3 2 6 -4 6 -6 0 -22 17 -36 38 -14 20 -36 48 -49 62 -13 14
-28 33 -34 42 -9 16 -84 107 -116 140 -10 10 -18 20 -18 23 0 6 -29 41 -82 98
-21 23 -38 48 -38 56 0 8 -3 11 -6 8 -4 -3 -16 6 -28 21 -77 99 -680 712 -700
712 -12 0 -94 89 -88 95 4 4 2 5 -4 3 -6 -2 -31 15 -56 37 -25 22 -66 58 -93
80 -26 22 -58 50 -71 63 -13 12 -27 22 -31 22 -5 0 -15 9 -23 20 -8 11 -20 20
-28 20 -7 0 -10 5 -7 10 3 6 0 10 -8 10 -7 0 -27 13 -43 30 -16 16 -34 30 -39
30 -6 0 -17 9 -25 19 -7 11 -17 18 -22 15 -4 -3 -8 2 -8 11 0 9 -4 14 -9 10
-6 -3 -13 1 -18 8 -4 7 -24 24 -43 37 -43 30 -67 49 -95 75 -13 11 -28 21 -36
23 -7 2 -19 12 -27 23 -7 10 -20 19 -28 19 -8 0 -17 6 -20 14 -3 8 -17 17 -31
21 -14 3 -23 9 -20 12 3 3 -17 21 -46 41 -29 19 -53 39 -55 44 -2 4 -10 8 -18
8 -8 0 -14 5 -14 10 0 6 -4 10 -10 10 -9 0 -35 19 -64 46 -7 6 -22 15 -34 18
-12 4 -22 12 -22 17 0 6 -4 7 -10 4 -5 -3 -10 -2 -10 3 0 6 -24 25 -52 43 -29
19 -54 37 -56 41 -2 5 -8 8 -13 8 -5 0 -36 18 -68 40 -32 22 -63 40 -69 40 -5
0 -13 7 -16 16 -3 8 -10 12 -16 9 -5 -3 -10 -1 -10 4 0 6 -5 11 -12 11 -6 0
-26 11 -44 25 -18 14 -36 25 -39 25 -4 0 -13 7 -22 15 -8 8 -19 13 -24 10 -5
-4 -9 -2 -9 2 0 5 -17 17 -37 28 -21 11 -40 23 -43 26 -3 3 -21 14 -40 24 -19
10 -46 26 -59 36 -13 10 -27 16 -32 13 -5 -3 -9 -1 -9 4 0 4 -29 23 -65 42
-36 19 -65 38 -65 42 0 5 -5 6 -11 2 -6 -3 -14 -2 -18 4 -3 5 -40 27 -81 48
-41 20 -78 42 -82 48 -4 6 -8 7 -8 3 0 -9 -53 18 -82 41 -9 8 -22 11 -27 7 -6
-3 -11 -1 -11 4 0 6 -7 11 -15 11 -8 0 -15 5 -15 11 0 5 -3 8 -7 6 -5 -2 -21
4 -38 14 -40 24 -117 61 -134 65 -8 1 -18 9 -22 16 -5 7 -9 10 -9 6 0 -4 -17
1 -37 12 -43 22 -98 43 -99 38 0 -2 -8 5 -18 15 -10 9 -26 17 -37 17 -10 0
-19 5 -19 10 0 6 -11 10 -25 10 -14 0 -25 5 -25 10 0 6 -7 10 -15 10 -8 0 -23
4 -33 10 -15 9 -69 31 -82 35 -3 0 -16 7 -30 15 -14 7 -27 13 -30 13 -3 -1
-18 4 -35 11 -16 7 -33 12 -36 12 -3 -1 -13 5 -22 13 -10 7 -17 10 -17 6 0 -5
-10 0 -22 11 -13 12 -18 13 -13 4 7 -12 6 -13 -6 -4 -16 12 -95 44 -123 50
-10 2 -23 7 -30 12 -6 5 -31 15 -56 22 -25 7 -49 16 -55 19 -5 3 -19 7 -30 8
-11 2 -24 8 -29 13 -6 6 -17 10 -26 10 -9 0 -32 8 -53 19 -20 10 -34 14 -31 9
4 -6 -1 -6 -12 0 -33 17 -68 30 -96 36 -15 4 -40 11 -55 18 -31 12 -49 17 -75
20 -10 1 -18 6 -18 10 0 4 -3 7 -7 6 -5 -1 -35 6 -68 17 -33 10 -66 19 -73 21
-8 1 -21 6 -30 10 -9 3 -26 8 -37 10 -39 7 -50 10 -60 15 -9 6 -31 12 -90 26
-40 9 -50 12 -50 13 0 1 -11 4 -25 7 -39 7 -55 11 -55 13 0 1 -9 3 -20 5 -11
2 -56 14 -100 25 -44 12 -93 24 -110 27 -47 8 -60 11 -60 13 0 1 -9 3 -20 5
-11 1 -42 8 -70 15 -27 6 -66 14 -85 16 -19 3 -39 9 -44 14 -5 5 -17 5 -29 -1
-15 -9 -18 -8 -12 2 6 9 3 11 -8 6 -10 -3 -17 -3 -17 2 0 4 -20 7 -44 7 -24
-1 -42 2 -39 7 2 4 -4 7 -14 7 -11 0 -25 6 -32 13 -11 10 -12 9 -6 -2 6 -10 2
-12 -14 -6 -33 10 -74 17 -103 18 -16 0 -28 3 -28 7 0 3 -17 7 -39 8 -21 2
-49 5 -62 7 -13 3 -44 8 -69 11 -25 3 -52 7 -61 10 -27 8 -168 25 -221 27 -21
1 -38 4 -38 7 0 3 -27 5 -60 5 -33 0 -60 3 -60 7 0 8 -21 5 -36 -5 -6 -3 -14
-3 -18 1 -7 7 -20 9 -131 17 -33 2 -98 7 -145 11 -47 3 -109 6 -138 6 -28 0
-55 4 -58 9 -3 5 -13 5 -22 1 -18 -9 -51 -10 -67 -2 -5 3 -37 5 -70 5 -33 0
-63 5 -67 10 -5 6 -8 6 -8 -1 0 -8 -11 -10 -33 -5 -18 5 -40 7 -50 5 -9 -1
-17 1 -17 5 0 4 -10 7 -22 8 -13 0 -51 3 -85 6 -34 3 -64 3 -66 0z"/>
</g>
</svg>
